<?xml version="1.0" standalone="no"?>
<!DOCTYPE svg PUBLIC "-//W3C//DTD SVG 20010904//EN"
 "http://www.w3.org/TR/2001/REC-SVG-20010904/DTD/svg10.dtd">
<svg version="1.0" xmlns="http://www.w3.org/2000/svg"
 width="64.000000pt" height="64.000000pt" viewBox="0 0 64.000000 64.000000"
 preserveAspectRatio="xMidYMid meet">

<g transform="translate(0.000000,64.000000) scale(0.100000,-0.100000)"
fill="#000000" stroke="none">
<path d="M257 470 c-32 -25 -51 -81 -43 -125 9 -49 48 -75 105 -74 l46 2 -47
6 c-76 11 -106 55 -87 127 20 72 116 101 158 48 26 -34 27 -85 2 -108 -26 -23
-35 -6 -26 50 l6 44 -31 0 c-60 0 -104 -77 -64 -111 13 -11 21 -11 43 3 25 14
29 14 38 -1 9 -14 12 -14 36 2 26 17 31 33 28 87 -5 63 -108 94 -164 50z m93
-63 c0 -31 -27 -67 -51 -67 -26 0 -26 43 1 70 27 27 50 26 50 -3z"/>
</g>
</svg>
